.
 
http://www.scenetime.com    -   SceneTime [ We been having it ] !!!


How come you press harder on a remote control when you know the battery is dead? so you better seed to get speed ;)

        Seed back for speed


...................................NFO:.................................................[pre][img]http://i824.photobucket.com/albums/zz161/akosipalos/lbposter.png[/img]   
            
*******************************************************************************
                  Love.Birds.2011.480p.BRRip.XviD.AC3-PRESTiGE
*******************************************************************************

-------------------------------------------------------------------------------
                              General Information
-------------------------------------------------------------------------------

TiTLE............: Love.Birds.2011.480p.BRRip.XviD.AC3-PRESTiGE

iMDB.............: http://www.imdb.com/title/tt1636539/

GENRE............: Comedy | Romance

LANGUAGE.........: English

FORMAT...........: AVi

SOURCE...........: 720p.BluRay.x264-aAF MANY THANKS!!!

FiLE SiZE........: 1.70 GB

SAMPLE iNCLUDED..: YES

SUBS.............: N/A

DURATiON.........: 1h 41mn

ENCODED by.......: [color=maroon]akosipalos[/color]



ViDEO iNFO:

ID                               : 0
Format                           : MPEG-4 Visual
Format profile                   : Advanced Simple@L5
Format settings, BVOP            : 2
Format settings, QPel            : No
Format settings, GMC             : No warppoints
Format settings, Matrix          : Default (H.263)
Codec ID                         : XVID
Codec ID/Hint                    : XviD
Duration                         : 1h 41mn
Bit rate                         : 1 932 Kbps
Width                            : 720 pixels
Height                           : 304 pixels
Display aspect ratio             : 2.35:1
Frame rate                       : 24.000 fps
Color space                      : YUV
Chroma subsampling               : 4:2:0
Bit depth                        : 8 bits
Scan type                        : Progressive
Compression mode                 : Lossy
Bits/(Pixel*Frame)               : 0.368
Stream size                      : 1.37 GiB (81%)
Writing library                  : XviD 1.2.1 (UTC 2008-12-04)


AUDiO iNFO:

ID                               : 1
Format                           : AC-3
Format/Info                      : Audio Coding 3
Mode extension                   : CM (complete main)
Codec ID                         : 2000
Duration                         : 1h 41mn
Bit rate mode                    : Constant
Bit rate                         : 448 Kbps
Channel(s)                       : 6 channels
Channel positions                : Front: L C R, Side: L R, LFE
Sampling rate                    : 48.0 KHz
Bit depth                        : 16 bits
Compression mode                 : Lossy
Stream size                      : 326 MiB (19%)
Alignment                        : Aligned on interleaves
Interleave, duration             : 64 ms (1.54 video frames)
Interleave, preload duration     : 192 ms
Title                            : T2_Audio - 5.1 channels


-------------------------------------------------------------------------------
                                 PLOT:
-------------------------------------------------------------------------------


Doug - a road working employee and massive fan of the
legendary band Queen. Doug's happy and predictable life falls
to pieces when his long-term girlfriend Susan suddenly dumps
him early one morning. Through Pierre the duck Doug discovers
his own true place in the world and the belief in himself that
will allow him to find true love with Holly.


-------------------------------------------------------------------------------
                                 CAST:
-------------------------------------------------------------------------------


Rhys Darby .... Doug

Sally Hawkins .... Holly

Emily Barclay .... Brenda

Craig Hall .... Craig Watson

Bryan Brown .... Dr. Buster

Bronwyn Bradley .... Mum 1

John Callen .... Professor Craddock

Tane Cullen .... Artie

Zaverr Doctor .... Robin

Wesley Dowdell .... Brent

John Enright .... Duck Hunter #1

David Fane .... Kanga

Adam Gardiner .... Ray

Sonia Gray .... Ginger

John Leigh .... Quiz Master


-------------------------------------------------------------------------------
                               SCREENS:
-------------------------------------------------------------------------------


[img]http://i824.photobucket.com/albums/zz161/akosipalos/lb1.png[/img]

[img]http://i824.photobucket.com/albums/zz161/akosipalos/lb2.png[/img]

[img]http://i824.photobucket.com/albums/zz161/akosipalos/lb3.png[/img]

[img]http://i824.photobucket.com/albums/zz161/akosipalos/lb4.png[/img]

[img]http://i824.photobucket.com/albums/zz161/akosipalos/lb5.png[/img]



-------------------------------------------------------------------------------
                             Release Notes
-------------------------------------------------------------------------------

WE DONT RELEASE EVERYTHING TO OTHERS SITES YOU WANT MORE OF OUR STUFF COME FIND US AT .......

WE ARE LOOKING FOR SUPPLIERS BLURAY CAM R5 PRE RETAIL DVD GOT SOMETHING WE MIGHT LIKE WHEN YOU FIND US TELL US.......



ENCODER'S - ANYTHING AT ALL EMAIL US AT..... prestige@hushmail.me

** ** ** ** ** ** ** ** **

PRESTiGE is the level of respect at which one is regarded by others....RIzE Above Or Sink Below...


-------------------------------------------------------------------------------
                                 GREETZ:
-------------------------------------------------------------------------------


Twisted ,bigguy, Selina, 6of1, CTFX, HiTM4N, bedsy, mtyy, whitestag13, paranoid53, PA4U2C, phules, tac, BMB, Flawl3ss, smelise, fifer, akosipalos, DiLLoN, IMAGINE,"the squad" , floridajoe and To All Encoders Past And Present......


-------------------------------------------------------------------------------
Generated with Cool NFO Creator - http://fly.to/coolbeans
-------------------------------------------------------------------------------
[/pre]